<svg width="16" height="16" viewBox="0 0 16 16" xmlns="http://www.w3.org/2000/svg">
<path fill-rule="evenodd" clip-rule="evenodd" d="M4.10431 2.91327C3.77545 2.58441 3.24226 2.58441 2.9134 2.91327C2.58453 3.24214 2.58453 3.77533 2.9134 4.10419L6.80916 7.99996L2.9134 11.8957C2.58453 12.2246 2.58453 12.7578 2.9134 13.0866C3.24226 13.4155 3.77545 13.4155 4.10431 13.0866L8.00008 9.19088L11.8959 13.0866C12.2247 13.4155 12.7579 13.4155 13.0868 13.0866C13.4156 12.7578 13.4156 12.2246 13.0868 11.8957L9.191 7.99996L13.0868 4.10419C13.4156 3.77533 13.4156 3.24214 13.0868 2.91327C12.7579 2.58441 12.2247 2.58441 11.8959 2.91327L8.00008 6.80904L4.10431 2.91327Z" />
</svg>
